<svg xmlns="http://www.w3.org/2000/svg" xmlns:xlink="http://www.w3.org/1999/xlink" width="500" zoomAndPan="magnify" viewBox="0 0 375 374.999991" height="500" preserveAspectRatio="xMidYMid meet" version="1.0"><defs><g/></defs><g fill="#ffffff" fill-opacity="1"><g transform="translate(8.270964, 199.254097)"><g><path d="M 82.359375 -34.75 C 82.359375 -34.859375 82.359375 -34.859375 82.359375 -34.859375 C 82.359375 -34.96875 82.359375 -35.078125 82.25 -35.078125 C 82.25 -35.1875 82.140625 -35.1875 82.140625 -35.1875 L 63.046875 -35.1875 C 62.828125 -35.1875 62.71875 -35.078125 62.71875 -34.859375 C 62.71875 -34.75 62.828125 -34.515625 63.046875 -34.515625 L 78.140625 -34.515625 C 72.59375 -32.859375 68.8125 -27.640625 68.703125 -21.859375 L 68.703125 -12.984375 C 63.15625 -4.546875 54.9375 0.671875 45.953125 0.890625 C 45.734375 0.890625 45.40625 1 45.171875 0.890625 C 44.953125 0.890625 44.84375 0.890625 44.625 0.890625 L 44.40625 0.890625 C 36.296875 0.671875 28.75 -3.546875 23.09375 -10.984375 C 17.421875 -18.421875 14.3125 -28.1875 14.3125 -38.625 C 14.3125 -49.0625 17.421875 -58.828125 23.09375 -66.265625 C 28.75 -73.703125 36.296875 -77.921875 44.40625 -78.140625 C 44.734375 -78.140625 44.953125 -78.140625 45.171875 -78.140625 C 45.40625 -78.140625 45.515625 -78.140625 45.734375 -78.140625 L 45.953125 -78.140625 C 57.5 -77.8125 67.828125 -69.265625 72.921875 -56.0625 C 72.921875 -55.9375 73.03125 -55.828125 73.15625 -55.828125 C 73.375 -55.828125 73.484375 -55.9375 73.484375 -56.0625 L 76.375 -63.71875 C 76.375 -63.828125 76.375 -63.9375 76.25 -63.9375 C 68.8125 -73.15625 57.71875 -78.484375 45.953125 -78.703125 C 45.734375 -78.703125 45.40625 -78.703125 45.171875 -78.703125 C 45.0625 -78.703125 44.84375 -78.703125 44.734375 -78.703125 L 44.40625 -78.703125 C 33.859375 -78.59375 23.859375 -74.265625 16.53125 -66.71875 C 9.109375 -59.28125 5 -49.171875 5.109375 -38.625 C 5 -28.078125 9.109375 -17.984375 16.53125 -10.546875 C 23.859375 -3 33.859375 1.328125 44.40625 1.546875 C 44.625 1.546875 44.953125 1.546875 45.171875 1.546875 C 45.40625 1.546875 45.515625 1.546875 45.734375 1.546875 L 45.953125 1.546875 C 54.390625 1.328125 62.5 -1.4375 69.15625 -6.4375 C 69.265625 -6.4375 69.265625 -6.4375 69.265625 -6.546875 C 71.921875 -8.4375 74.265625 -10.765625 76.25 -13.203125 C 76.25 -13.203125 76.25 -13.203125 76.25 -13.3125 C 76.375 -13.3125 76.375 -13.3125 76.375 -13.3125 C 76.375 -13.4375 76.375 -13.4375 76.375 -13.4375 L 76.375 -28.859375 C 76.375 -31.859375 78.703125 -34.296875 81.703125 -34.515625 C 81.8125 -34.515625 81.921875 -34.515625 82.03125 -34.515625 L 82.140625 -34.515625 C 82.140625 -34.515625 82.140625 -34.625 82.140625 -34.625 C 82.140625 -34.625 82.140625 -34.625 82.25 -34.625 C 82.359375 -34.625 82.359375 -34.75 82.359375 -34.75 Z M 82.359375 -34.75 "/></g></g></g><g fill="#ffffff" fill-opacity="1"><g transform="translate(94.397797, 199.254097)"><g><path d="M 50.171875 -6.875 C 50.0625 -6.875 50.0625 -6.875 49.953125 -6.875 C 49.84375 -6.875 49.84375 -6.875 49.734375 -6.765625 C 48.0625 -3.21875 35.078125 -0.21875 20.984375 -0.21875 L 8.984375 -0.21875 C 14.4375 -2 18.203125 -7.109375 18.203125 -12.984375 L 18.203125 -71.265625 C 18.203125 -74.140625 20.421875 -76.703125 23.421875 -76.921875 C 23.53125 -76.921875 23.75 -77.03125 23.96875 -77.03125 C 24.09375 -77.03125 24.3125 -77.140625 24.3125 -77.25 C 24.3125 -77.484375 24.09375 -77.59375 23.96875 -77.59375 L 4.890625 -77.59375 C 4.765625 -77.59375 4.65625 -77.484375 4.65625 -77.25 C 4.65625 -77.140625 4.765625 -77.03125 4.890625 -77.03125 L 20.09375 -77.03125 C 14.4375 -75.265625 10.65625 -70.046875 10.65625 -64.265625 L 10.65625 -5.890625 C 10.65625 -3 8.4375 -0.5625 5.546875 -0.21875 L 4.890625 -0.21875 C 4.765625 -0.21875 4.65625 -0.109375 4.65625 0 C 4.65625 0.109375 4.65625 0.109375 4.65625 0.109375 C 4.65625 0.21875 4.765625 0.4375 4.890625 0.4375 C 5.21875 0.4375 5.4375 0.328125 5.765625 0.328125 L 46.84375 0.328125 C 46.84375 0.328125 46.953125 0.328125 46.953125 0.328125 C 47.0625 0.21875 47.0625 0.21875 47.0625 0.21875 L 50.28125 -6.546875 C 50.390625 -6.546875 50.390625 -6.65625 50.28125 -6.765625 C 50.28125 -6.765625 50.28125 -6.875 50.171875 -6.875 Z M 50.171875 -6.875 "/></g></g></g><g fill="#ffffff" fill-opacity="1"><g transform="translate(146.118291, 199.254097)"><g><path d="M 16.765625 -67.046875 C 1.109375 -51.28125 1.109375 -25.859375 16.765625 -10.21875 C 24.3125 -2.65625 34.515625 1.546875 45.171875 1.546875 C 55.828125 1.546875 66.046875 -2.65625 73.59375 -10.21875 C 81.140625 -17.765625 85.359375 -27.96875 85.359375 -38.625 C 85.359375 -49.28125 81.140625 -59.5 73.59375 -67.046875 C 57.828125 -82.6875 32.515625 -82.6875 16.765625 -67.046875 Z M 17.203125 -66.59375 C 22.3125 -71.59375 29.078125 -74.03125 36.515625 -74.03125 C 46.734375 -74.03125 58.046875 -69.375 67.046875 -60.5 C 74.484375 -52.953125 79.25 -43.625 80.359375 -34.296875 C 81.578125 -24.859375 78.921875 -16.421875 73.15625 -10.65625 C 61.046875 1.4375 38.734375 -1.328125 23.3125 -16.765625 C 7.875 -32.1875 5.109375 -54.5 17.203125 -66.59375 Z M 17.203125 -66.59375 "/></g></g></g><g fill="#ffffff" fill-opacity="1"><g transform="translate(236.684653, 199.254097)"><g><path d="M 125.3125 -77.59375 L 106.234375 -77.59375 C 106.109375 -77.59375 105.890625 -77.484375 105.890625 -77.25 C 105.890625 -77.140625 106.109375 -77.03125 106.234375 -77.03125 L 121.21875 -77.03125 C 118.328125 -76.140625 115.65625 -74.375 113.78125 -72.03125 L 115.109375 -75.265625 C 115.21875 -75.375 115.109375 -75.484375 115 -75.59375 C 114.78125 -75.703125 114.65625 -75.59375 114.546875 -75.484375 L 111.78125 -68.703125 C 111.78125 -68.59375 111.78125 -68.59375 111.78125 -68.59375 L 93.34375 -24.09375 C 93.34375 -26.640625 91.6875 -28.96875 89.359375 -29.96875 C 85.90625 -31.296875 82.140625 -29.75 80.703125 -26.421875 C 80.359375 -25.640625 80.25 -24.75 80.25 -23.96875 L 65.15625 -58.28125 L 69.265625 -68.484375 C 71.484375 -73.59375 76.59375 -77.03125 82.25 -77.03125 C 82.46875 -77.03125 82.578125 -77.140625 82.578125 -77.25 C 82.578125 -77.484375 82.46875 -77.59375 82.25 -77.59375 L 44.171875 -77.59375 C 43.953125 -77.59375 43.84375 -77.484375 43.84375 -77.25 C 43.84375 -77.140625 43.953125 -77.03125 44.171875 -77.03125 L 59.9375 -77.03125 C 56.0625 -75.59375 53.5 -71.921875 53.5 -67.9375 C 53.5 -66.484375 53.828125 -65.15625 54.390625 -63.828125 L 60.828125 -49.28125 L 43.953125 -8.546875 L 16.65625 -70.8125 C 16.3125 -71.484375 16.09375 -72.15625 16.09375 -72.8125 C 16.09375 -75.140625 17.875 -77.03125 20.203125 -77.03125 C 20.3125 -77.03125 20.53125 -77.140625 20.53125 -77.25 C 20.53125 -77.484375 20.3125 -77.59375 20.203125 -77.59375 L 1.109375 -77.59375 C 1 -77.59375 0.890625 -77.484375 0.890625 -77.25 C 0.890625 -77.140625 1 -77.03125 1.109375 -77.03125 L 16.875 -77.03125 C 13.09375 -75.59375 10.546875 -71.921875 10.546875 -67.9375 C 10.546875 -66.484375 10.875 -65.15625 11.4375 -63.828125 L 39.953125 1.328125 C 39.953125 1.328125 40.078125 1.4375 40.078125 1.4375 C 40.1875 1.546875 40.1875 1.546875 40.1875 1.546875 C 40.296875 1.546875 40.296875 1.4375 40.296875 1.4375 C 40.296875 1.4375 40.40625 1.4375 40.40625 1.4375 C 40.40625 1.4375 40.515625 1.328125 40.515625 1.328125 L 40.953125 0.328125 L 61.046875 -48.625 L 83.03125 1.328125 C 83.03125 1.4375 83.140625 1.546875 83.25 1.546875 C 83.359375 1.546875 83.46875 1.4375 83.578125 1.328125 L 87.25 -7.65625 C 87.25 -7.765625 87.25 -7.765625 87.25 -7.875 L 81.25 -21.53125 C 80.59375 -22.984375 80.59375 -24.640625 81.25 -26.203125 C 82.46875 -29.1875 86.03125 -30.640625 89.015625 -29.421875 C 92.125 -28.1875 93.578125 -24.640625 92.359375 -21.53125 C 92.234375 -21.421875 92.359375 -21.203125 92.46875 -21.203125 C 92.578125 -21.203125 92.578125 -21.203125 92.578125 -21.203125 C 92.6875 -21.203125 92.6875 -21.203125 92.796875 -21.203125 C 92.796875 -21.3125 92.90625 -21.3125 92.90625 -21.3125 L 112.328125 -68.484375 C 114.546875 -73.59375 119.65625 -77.03125 125.3125 -77.03125 C 125.4375 -77.03125 125.65625 -77.140625 125.65625 -77.25 C 125.65625 -77.484375 125.4375 -77.59375 125.3125 -77.59375 Z M 70.8125 -72.03125 L 72.15625 -75.265625 C 72.15625 -75.375 72.03125 -75.484375 71.921875 -75.59375 C 71.8125 -75.703125 71.59375 -75.59375 71.59375 -75.484375 L 68.703125 -68.703125 C 68.703125 -68.59375 68.703125 -68.59375 68.703125 -68.59375 L 64.828125 -59.046875 L 59.609375 -70.8125 C 59.390625 -71.484375 59.15625 -72.15625 59.046875 -72.8125 C 59.046875 -75.140625 60.9375 -77.03125 63.265625 -77.03125 L 78.140625 -77.03125 C 75.265625 -76.140625 72.703125 -74.375 70.8125 -72.03125 Z M 70.8125 -72.03125 "/></g></g></g><g fill="#ffffff" fill-opacity="1"><g transform="translate(175.256799, 172.243421)"><g><path d="M 17.1875 -17.90625 L 12.78125 -17.90625 C 12.734375 -17.90625 12.703125 -17.890625 12.703125 -17.828125 C 12.703125 -17.8125 12.734375 -17.78125 12.78125 -17.78125 L 16.453125 -17.78125 C 15.78125 -17.5 15.265625 -16.96875 15.015625 -16.296875 L 15.015625 -17.1875 C 15.015625 -17.21875 14.984375 -17.265625 14.96875 -17.265625 C 14.90625 -17.265625 14.890625 -17.21875 14.890625 -17.1875 L 14.890625 -6.015625 C 14.890625 -3.03125 12.453125 -0.59375 9.453125 -0.59375 C 6.453125 -0.59375 4.015625 -3.03125 4.015625 -6.015625 L 4.015625 -16.453125 C 4.015625 -17.125 4.53125 -17.703125 5.234375 -17.765625 C 5.25 -17.765625 5.296875 -17.78125 5.359375 -17.78125 C 5.375 -17.78125 5.4375 -17.8125 5.4375 -17.828125 C 5.4375 -17.890625 5.375 -17.90625 5.359375 -17.90625 L 0.953125 -17.90625 C 0.921875 -17.90625 0.890625 -17.890625 0.890625 -17.828125 C 0.890625 -17.8125 0.921875 -17.78125 0.953125 -17.78125 L 4.453125 -17.78125 C 3.15625 -17.375 2.28125 -16.171875 2.28125 -14.84375 L 2.28125 -6.015625 C 2.28125 -2.515625 5.125 0.359375 8.65625 0.359375 C 12.0625 0.359375 14.859375 -2.328125 15.015625 -5.734375 C 15.015625 -5.84375 15.015625 -5.921875 15.015625 -6.015625 L 15.015625 -15.53125 C 15.015625 -16.734375 16.046875 -17.78125 17.1875 -17.78125 C 17.21875 -17.78125 17.25 -17.8125 17.25 -17.828125 C 17.25 -17.890625 17.21875 -17.90625 17.1875 -17.90625 Z M 17.1875 -17.90625 "/></g></g></g><g fill="#ffffff" fill-opacity="1"><g transform="translate(193.060783, 172.243421)"><g><path d="M 9.359375 -17.90625 L 1.125 -17.90625 C 1.109375 -17.90625 1.078125 -17.890625 1.078125 -17.828125 C 1.078125 -17.8125 1.109375 -17.78125 1.125 -17.78125 L 4.640625 -17.78125 C 3.328125 -17.375 2.453125 -16.171875 2.453125 -14.84375 L 2.453125 -1.359375 C 2.453125 -0.640625 1.875 -0.046875 1.125 -0.046875 C 1.109375 -0.046875 1.109375 -0.046875 1.109375 -0.046875 C 1.109375 -0.03125 1.109375 -0.03125 1.109375 -0.03125 C 1.078125 -0.03125 1.078125 -0.03125 1.078125 -0.03125 C 1.078125 0 1.078125 0 1.078125 0 C 1.078125 0 1.078125 0.03125 1.078125 0.03125 C 1.078125 0.046875 1.078125 0.046875 1.078125 0.078125 C 1.109375 0.078125 1.109375 0.109375 1.125 0.109375 L 1.15625 0.109375 L 5.53125 0.078125 C 5.5625 0.078125 5.5625 0.078125 5.59375 0.046875 C 5.59375 0.046875 5.609375 0.03125 5.609375 0 C 5.609375 -0.03125 5.5625 -0.046875 5.53125 -0.046875 L 2.046875 -0.046875 C 3.328125 -0.46875 4.203125 -1.640625 4.203125 -3 L 4.203125 -4.375 C 4.234375 -6.65625 6.078125 -8.5 8.359375 -8.5 L 9.359375 -8.5 C 11.9375 -8.5 14.046875 -10.609375 14.0625 -13.203125 C 14.046875 -15.8125 11.9375 -17.90625 9.359375 -17.90625 Z M 4.203125 -5.453125 L 4.203125 -16.453125 C 4.203125 -17.125 4.71875 -17.703125 5.40625 -17.765625 C 5.4375 -17.765625 5.484375 -17.78125 5.53125 -17.78125 L 8.359375 -17.78125 C 10.328125 -17.78125 11.921875 -15.734375 11.921875 -13.203125 C 11.921875 -10.6875 10.328125 -8.640625 8.359375 -8.640625 C 6.40625 -8.640625 4.71875 -7.328125 4.203125 -5.453125 Z M 4.203125 -5.453125 "/></g></g></g></svg>